<svg width="264" height="234" viewBox="0 0 264 234" fill="none" xmlns="http://www.w3.org/2000/svg">
<path d="M171.427 62.9652C171.427 82.992 153.749 99.4344 131.677 99.4344C109.604 99.4344 91.9265 82.992 91.9265 62.9652C91.9265 42.9385 109.604 26.4961 131.677 26.4961C153.749 26.4961 171.427 42.9385 171.427 62.9652Z" fill="white" stroke="#237FEA" stroke-width="3"/>
<path d="M130.177 94.8588C130.177 114.886 112.499 131.328 90.4265 131.328C68.3537 131.328 50.6765 114.886 50.6765 94.8588C50.6765 74.8321 68.3537 58.3896 90.4265 58.3896C112.499 58.3896 130.177 74.8321 130.177 94.8588Z" fill="white" stroke="#2480EB" stroke-width="3"/>
<path d="M212.677 94.8588C212.677 114.886 194.999 131.328 172.927 131.328C150.854 131.328 133.177 114.886 133.177 94.8588C133.177 74.8321 150.854 58.3896 172.927 58.3896C194.999 58.3896 212.677 74.8321 212.677 94.8588Z" fill="white" stroke="#2480EB" stroke-width="3"/>
<ellipse cx="131.677" cy="64.4838" rx="39.6" ry="37.9691" fill="white"/>
<path d="M171.427 117.641C171.427 137.668 153.749 154.11 131.677 154.11C109.604 154.11 91.9265 137.668 91.9265 117.641C91.9265 97.6143 109.604 81.1719 131.677 81.1719C153.749 81.1719 171.427 97.6143 171.427 117.641Z" fill="white" stroke="#2480EB" stroke-width="3"/>
<rect x="125.088" y="96.27" width="13.1765" height="42.563" fill="white" stroke="#2480EB" stroke-width="3"/>
<rect x="108.912" y="123.668" width="12.1877" height="46.5" transform="rotate(-90 108.912 123.668)" fill="white" stroke="#2480EB" stroke-width="3"/>
<rect x="125.529" y="104.715" width="12.2941" height="22.23" fill="white"/>
<path d="M10.9628 204.385C10.0514 204.385 9.59564 203.897 9.59564 202.92V177.842C9.59564 176.866 10.0514 176.377 10.9628 176.377H16.6269C17.3821 176.377 17.9225 176.898 18.248 177.94L23.541 195.069C23.7753 195.811 23.9381 196.423 24.0292 196.905C24.1204 197.374 24.1985 197.933 24.2636 198.584H24.3808C24.4459 197.933 24.524 197.374 24.6152 196.905C24.7063 196.423 24.8691 195.811 25.1035 195.069L30.3964 177.94C30.7219 176.898 31.2623 176.377 32.0175 176.377H37.6816C38.593 176.377 39.0488 176.866 39.0488 177.842V202.92C39.0488 203.897 38.593 204.385 37.6816 204.385H34.7128C33.8014 204.385 33.3456 203.897 33.3456 202.92V186.788C33.3456 186.006 33.3782 185.225 33.4433 184.444H33.3066L27.662 202.803C27.3365 203.858 26.7766 204.385 25.9824 204.385H22.662C21.8678 204.385 21.3079 203.858 20.9824 202.803L15.3378 184.444H15.2011C15.2662 185.225 15.2988 186.006 15.2988 186.788V202.92C15.2988 203.897 14.843 204.385 13.9316 204.385H10.9628ZM43.7363 194.131C43.7363 190.837 44.5566 188.239 46.1972 186.338C47.8509 184.437 50.1816 183.487 53.1894 183.487C56.679 183.487 59.2701 184.385 60.9628 186.182C62.6555 187.979 63.5019 190.87 63.5019 194.854C63.5019 195.635 63.1373 196.026 62.4081 196.026H49.5175C49.7259 198.187 50.2597 199.548 51.1191 200.108C51.9785 200.668 52.9745 200.948 54.1074 200.948C55.1881 200.948 56.0149 200.805 56.5878 200.518C57.1607 200.232 57.6425 199.841 58.0331 199.346C58.4759 198.773 59.0227 198.682 59.6738 199.073L61.6269 200.264C62.3951 200.733 62.5058 201.293 61.9589 201.944C61.1647 202.894 60.2337 203.604 59.166 204.073C58.0982 204.542 56.412 204.776 54.1074 204.776C50.3704 204.776 47.7076 203.825 46.1191 201.924C44.5305 200.023 43.7363 197.426 43.7363 194.131ZM49.537 192.12H58.0331C58.0331 190.713 57.6816 189.568 56.9785 188.682C56.2753 187.784 55.1555 187.334 53.6191 187.334C52.3951 187.334 51.4251 187.764 50.7089 188.624C49.9928 189.47 49.6022 190.635 49.537 192.12ZM66.666 194.131C66.666 191.267 67.2844 188.78 68.5214 186.67C69.7714 184.548 71.9264 183.487 74.9863 183.487C76.1581 183.487 77.1607 183.656 77.9941 183.995C78.8274 184.333 79.5826 185.062 80.2597 186.182H80.3378C80.2857 185.661 80.2597 185.14 80.2597 184.62V176.729C80.2597 175.948 80.6503 175.557 81.4316 175.557H84.5566C85.3378 175.557 85.7285 175.948 85.7285 176.729V203.213C85.7285 203.995 85.3378 204.385 84.5566 204.385H81.4706C80.8196 204.385 80.468 203.995 80.416 203.213L80.3378 202.081H80.2597C79.5826 203.2 78.8274 203.93 77.9941 204.268C77.1607 204.607 76.1581 204.776 74.9863 204.776C71.9264 204.776 69.7714 203.721 68.5214 201.612C67.2844 199.489 66.666 196.996 66.666 194.131ZM72.4472 194.131C72.4472 196.215 72.7141 197.875 73.248 199.112C73.7949 200.336 74.9472 200.948 76.705 200.948C77.6816 200.948 78.5149 200.401 79.205 199.307C79.9081 198.2 80.2597 196.768 80.2597 195.01V193.252C80.2597 191.495 79.9081 190.069 79.205 188.975C78.5149 187.868 77.6816 187.315 76.705 187.315C74.9472 187.315 73.7949 187.933 73.248 189.17C72.7141 190.394 72.4472 192.048 72.4472 194.131ZM92.2128 204.385C91.4316 204.385 91.041 203.995 91.041 203.213V185.049C91.041 184.268 91.4316 183.877 92.2128 183.877H95.3378C96.1191 183.877 96.5097 184.268 96.5097 185.049V203.213C96.5097 203.995 96.1191 204.385 95.3378 204.385H92.2128ZM92.2128 180.87C91.4316 180.87 91.041 180.479 91.041 179.698V177.198C91.041 176.417 91.4316 176.026 92.2128 176.026H95.3378C96.1191 176.026 96.5097 176.417 96.5097 177.198V179.698C96.5097 180.479 96.1191 180.87 95.3378 180.87H92.2128ZM100.846 190.381C100.846 185.889 101.985 182.321 104.264 179.678C106.542 177.035 109.83 175.713 114.127 175.713C116.601 175.713 118.697 176.097 120.416 176.866C122.135 177.634 123.346 178.747 124.049 180.206C124.518 181.169 124.439 181.82 123.814 182.159L121.471 183.409C120.65 183.851 119.973 183.604 119.439 182.667C119.101 182.068 118.469 181.527 117.545 181.045C116.633 180.564 115.559 180.323 114.322 180.323C111.588 180.323 109.674 181.189 108.58 182.92C107.486 184.639 106.939 187.126 106.939 190.381C106.939 193.637 107.486 196.13 108.58 197.862C109.674 199.581 111.588 200.44 114.322 200.44C115.794 200.44 117.031 200.108 118.033 199.444C119.049 198.78 119.752 198.148 120.143 197.549C120.781 196.573 121.458 196.325 122.174 196.807L124.518 198.37C125.156 198.799 125.221 199.45 124.713 200.323C123.958 201.625 122.662 202.738 120.826 203.663C118.99 204.587 116.757 205.049 114.127 205.049C109.895 205.049 106.62 203.728 104.303 201.084C101.998 198.441 100.846 194.874 100.846 190.381ZM128.424 194.131C128.424 190.811 129.277 188.207 130.982 186.319C132.701 184.431 135.253 183.487 138.639 183.487C142.024 183.487 144.57 184.431 146.275 186.319C147.994 188.207 148.853 190.811 148.853 194.131C148.853 197.452 147.994 200.056 146.275 201.944C144.57 203.832 142.024 204.776 138.639 204.776C135.253 204.776 132.701 203.832 130.982 201.944C129.277 200.056 128.424 197.452 128.424 194.131ZM134.205 194.131C134.205 196.605 134.583 198.363 135.338 199.405C136.106 200.433 137.206 200.948 138.639 200.948C140.071 200.948 141.165 200.433 141.92 199.405C142.688 198.363 143.072 196.605 143.072 194.131C143.072 191.657 142.688 189.906 141.92 188.877C141.165 187.836 140.071 187.315 138.639 187.315C137.206 187.315 136.106 187.836 135.338 188.877C134.583 189.906 134.205 191.657 134.205 194.131ZM154.244 204.385C153.463 204.385 153.072 203.995 153.072 203.213V185.049C153.072 184.268 153.463 183.877 154.244 183.877H157.33C158.111 183.877 158.502 184.268 158.502 185.049V186.182H158.58C159.179 185.153 159.941 184.45 160.865 184.073C161.79 183.682 162.903 183.487 164.205 183.487C166.236 183.487 167.916 184.125 169.244 185.401C170.572 186.677 171.236 189.008 171.236 192.393V203.213C171.236 203.995 170.846 204.385 170.064 204.385H166.939C166.158 204.385 165.768 203.995 165.768 203.213V193.799C165.768 190.961 165.572 189.17 165.182 188.428C164.791 187.686 163.951 187.315 162.662 187.315C161.295 187.315 160.266 187.849 159.576 188.917C158.886 189.971 158.541 192.172 158.541 195.518V203.213C158.541 203.995 158.15 204.385 157.369 204.385H154.244ZM177.682 204.385C176.9 204.385 176.51 203.995 176.51 203.213V185.049C176.51 184.268 176.9 183.877 177.682 183.877H180.768C181.549 183.877 181.939 184.268 181.939 185.049V186.182H182.018C182.616 185.153 183.378 184.45 184.303 184.073C185.227 183.682 186.34 183.487 187.643 183.487C189.674 183.487 191.353 184.125 192.682 185.401C194.01 186.677 194.674 189.008 194.674 192.393V203.213C194.674 203.995 194.283 204.385 193.502 204.385H190.377C189.596 204.385 189.205 203.995 189.205 203.213V193.799C189.205 190.961 189.01 189.17 188.619 188.428C188.228 187.686 187.389 187.315 186.1 187.315C184.732 187.315 183.704 187.849 183.014 188.917C182.324 189.971 181.978 192.172 181.978 195.518V203.213C181.978 203.995 181.588 204.385 180.807 204.385H177.682ZM198.853 194.131C198.853 190.837 199.674 188.239 201.314 186.338C202.968 184.437 205.299 183.487 208.307 183.487C211.796 183.487 214.387 184.385 216.08 186.182C217.773 187.979 218.619 190.87 218.619 194.854C218.619 195.635 218.254 196.026 217.525 196.026H204.635C204.843 198.187 205.377 199.548 206.236 200.108C207.096 200.668 208.092 200.948 209.225 200.948C210.305 200.948 211.132 200.805 211.705 200.518C212.278 200.232 212.76 199.841 213.15 199.346C213.593 198.773 214.14 198.682 214.791 199.073L216.744 200.264C217.512 200.733 217.623 201.293 217.076 201.944C216.282 202.894 215.351 203.604 214.283 204.073C213.215 204.542 211.529 204.776 209.225 204.776C205.488 204.776 202.825 203.825 201.236 201.924C199.648 200.023 198.853 197.426 198.853 194.131ZM204.654 192.12H213.15C213.15 190.713 212.799 189.568 212.096 188.682C211.393 187.784 210.273 187.334 208.736 187.334C207.512 187.334 206.542 187.764 205.826 188.624C205.11 189.47 204.719 190.635 204.654 192.12ZM221.783 194.131C221.783 190.811 222.616 188.207 224.283 186.319C225.95 184.431 228.508 183.487 231.959 183.487C233.977 183.487 235.546 183.754 236.666 184.288C237.786 184.821 238.684 185.603 239.361 186.631C239.765 187.243 239.7 187.725 239.166 188.077L237.096 189.444C236.51 189.834 235.995 189.685 235.553 188.995C235.331 188.656 234.908 188.292 234.283 187.901C233.658 187.51 232.883 187.315 231.959 187.315C230.488 187.315 229.387 187.836 228.658 188.877C227.929 189.906 227.564 191.657 227.564 194.131C227.564 196.605 227.929 198.363 228.658 199.405C229.387 200.433 230.488 200.948 231.959 200.948C233.014 200.948 233.866 200.726 234.518 200.284C235.169 199.841 235.781 199.268 236.353 198.565C236.848 197.966 237.369 197.881 237.916 198.311L239.732 199.737C240.279 200.167 240.312 200.739 239.83 201.456C239.322 202.211 238.456 202.953 237.232 203.682C236.021 204.411 234.264 204.776 231.959 204.776C228.508 204.776 225.95 203.832 224.283 201.944C222.616 200.056 221.783 197.452 221.783 194.131ZM243.404 187.784C242.636 187.784 242.252 187.458 242.252 186.807V184.854C242.252 184.203 242.636 183.877 243.404 183.877H244.732V183.194C244.732 182.608 244.869 182.074 245.143 181.592L246.646 178.956C246.933 178.461 247.271 178.213 247.662 178.213H249.029C249.81 178.213 250.201 178.604 250.201 179.385V183.877H253.365C254.133 183.877 254.518 184.203 254.518 184.854V186.807C254.518 187.458 254.133 187.784 253.365 187.784H250.201V197.471C250.201 198.799 250.292 199.756 250.475 200.342C250.67 200.915 251.165 201.202 251.959 201.202C252.363 201.202 252.818 201.137 253.326 201.006C253.834 200.863 254.231 200.726 254.518 200.596C254.973 200.388 255.273 200.538 255.416 201.045L256.002 203.272C256.119 203.715 255.95 204.04 255.494 204.249C255.064 204.444 254.472 204.62 253.717 204.776C252.975 204.945 252.226 205.03 251.471 205.03C249.609 205.03 248.02 204.646 246.705 203.877C245.39 203.109 244.732 201.527 244.732 199.131V187.784H243.404Z" fill="#2480EB"/>
</svg>
